<svg xmlns="http://www.w3.org/2000/svg" width="84" height="80" viewBox="0 0 84 80" fill="none"><g clip-path="url(#clip0_141_395)"><path d="M78.8289 78.5172H0V1.02174L77.9767 0L78.8289 78.5172Z" fill="#F9FBFA"></path><path d="M24.4033 14.0635H42.4995" stroke="#443C4C" stroke-miterlimit="10"></path><path d="M46.3242 14.0635H64.4204" stroke="#443C4C" stroke-miterlimit="10"></path><path d="M24.4033 19.9736H64.4201" stroke="#443C4C" stroke-miterlimit="10"></path><path d="M15.3556 20.9955C17.6624 20.9955 19.5324 19.1328 19.5324 16.8351C19.5324 14.5375 17.6624 12.6748 15.3556 12.6748C13.0488 12.6748 11.1787 14.5375 11.1787 16.8351C11.1787 19.1328 13.0488 20.9955 15.3556 20.9955Z" fill="#443C4C"></path><path d="M24.4033 29.0122H42.4995" stroke="#443C4C" stroke-miterlimit="10"></path><path d="M46.3242 29.0122H64.4204" stroke="#443C4C" stroke-miterlimit="10"></path><path d="M24.4033 34.917H64.4201" stroke="#443C4C" stroke-miterlimit="10"></path><path d="M15.3556 35.9442C17.6624 35.9442 19.5324 34.0816 19.5324 31.7839C19.5324 29.4862 17.6624 27.6235 15.3556 27.6235C13.0488 27.6235 11.1787 29.4862 11.1787 31.7839C11.1787 34.0816 13.0488 35.9442 15.3556 35.9442Z" fill="#443C4C"></path><path d="M24.4033 43.9614H42.4995" stroke="#443C4C" stroke-miterlimit="10"></path><path d="M46.3242 43.9614H64.4204" stroke="#443C4C" stroke-miterlimit="10"></path><path d="M24.4033 49.8662H64.4201" stroke="#443C4C" stroke-miterlimit="10"></path><path d="M15.3556 50.8934C17.6624 50.8934 19.5324 49.0308 19.5324 46.7331C19.5324 44.4354 17.6624 42.5728 15.3556 42.5728C13.0488 42.5728 11.1787 44.4354 11.1787 46.7331C11.1787 49.0308 13.0488 50.8934 15.3556 50.8934Z" fill="#443C4C"></path><path d="M24.4033 58.9102H42.4995" stroke="#443C4C" stroke-miterlimit="10"></path><path d="M46.3242 58.9102H64.4204" stroke="#443C4C" stroke-miterlimit="10"></path><path d="M24.4033 64.8154H64.4201" stroke="#443C4C" stroke-miterlimit="10"></path><path d="M15.3556 65.8422C17.6624 65.8422 19.5324 63.9795 19.5324 61.6818C19.5324 59.3841 17.6624 57.5215 15.3556 57.5215C13.0488 57.5215 11.1787 59.3841 11.1787 61.6818C11.1787 63.9795 13.0488 65.8422 15.3556 65.8422Z" fill="#443C4C"></path><path d="M83.1369 65.6901C83.1369 68.0795 82.2584 69.9972 80.5014 71.4486C78.7181 72.8738 76.556 73.5812 74.0099 73.5812C71.7426 73.5812 69.7436 72.9209 68.0129 71.6005C66.7556 70.6417 65.7772 69.4261 65.0828 67.9589C64.6462 67.0367 65.0617 65.9364 66.0086 65.5487L66.1033 65.5067C66.9608 65.1557 67.9498 65.5225 68.3601 66.3556C68.4758 66.5914 68.5968 66.8167 68.7336 67.0315C69.1386 67.6917 69.6174 68.2576 70.1644 68.7239C70.7115 69.1955 71.3165 69.5623 71.9793 69.8295C72.6422 70.0967 73.3418 70.2277 74.0783 70.2277C75.6827 70.2277 76.9926 69.8138 78.0131 68.9912C79.0337 68.1685 79.5387 67.0682 79.5387 65.7006C79.5387 64.5584 79.1179 63.5838 78.2762 62.7716C77.4871 61.9857 76.0089 61.2259 73.8468 60.4871C71.6584 59.7011 70.296 59.1667 69.7594 58.889C66.8556 57.4166 65.4037 55.2526 65.4037 52.3813C65.4037 50.3797 66.2085 48.6663 67.8077 47.2463C69.4385 45.8264 71.4375 45.1138 73.8047 45.1138C75.8932 45.1138 77.7028 45.6482 79.2283 46.7119C80.0753 47.2883 80.7644 47.9485 81.301 48.6873C81.9691 49.6147 81.6008 50.9141 80.5435 51.3543C79.7544 51.6844 78.8601 51.3962 78.3761 50.6888C78.0658 50.233 77.6659 49.8243 77.1872 49.468C76.2824 48.7973 75.183 48.4619 73.8836 48.4619C72.5106 48.4619 71.3481 48.8392 70.4064 49.599C69.4648 50.3063 68.9913 51.2285 68.9913 52.3655C68.9913 53.2982 69.3596 54.1104 70.1013 54.7915C70.9167 55.4727 72.6842 56.2796 75.4092 57.2175C78.1867 58.1607 80.1647 59.3082 81.3483 60.6705C82.5319 62.0328 83.1264 63.699 83.1264 65.6849L83.1369 65.6901Z" fill="#BD96ED"></path><path d="M74.2891 39.3867V78.4278" stroke="#BD96ED" stroke-width="3" stroke-linecap="round" stroke-linejoin="round"></path></g><defs><clipPath id="clip0_141_395"><rect width="83.1373" height="80" fill="white"></rect></clipPath></defs></svg>