<svg xmlns="http://www.w3.org/2000/svg" width="89" height="80" viewBox="0 0 89 80" fill="none"><g clip-path="url(#clip0_141_370)"><path d="M74.2048 80.0004H2.81259C1.25012 80.0004 -0.01523 78.7131 0.00013853 77.1364L0.41509 28.6143H75.6392L77.0172 77.0795C77.0633 78.6769 75.7929 80.0004 74.2048 80.0004Z" fill="#E0DFE1"></path><path d="M74.2867 80.0002H2.73063C1.21426 80.0002 -0.0152261 78.7491 0.000142528 77.2189L0.415094 28.6141L37.3048 58.5462L45.5475 52.11L75.6443 28.6089L77.0223 77.1569C77.0684 78.7078 75.8287 79.995 74.2918 79.995L74.2867 80.0002Z" fill="#ECEBEC"></path><path d="M34.021 1.42199L0.415039 28.6142H75.6391L42.0332 1.42199C39.692 -0.470091 36.3673 -0.470091 34.0261 1.42199H34.021Z" fill="#B4B1B8"></path><path d="M71.6691 70.5189H4.30859V3.42746L70.9365 2.54346L71.6691 70.5189Z" fill="#F9FBFA"></path><path d="M15.9268 13.772H59.676" stroke="#443C4C" stroke-miterlimit="10"></path><path d="M15.9268 18.8848H59.676" stroke="#443C4C" stroke-miterlimit="10"></path><path d="M15.9268 23.9976H59.676" stroke="#443C4C" stroke-miterlimit="10"></path><path d="M15.9268 29.1104H59.676" stroke="#443C4C" stroke-miterlimit="10"></path><path d="M15.9268 34.2231H59.676" stroke="#443C4C" stroke-miterlimit="10"></path><path d="M15.9268 39.3408H59.676" stroke="#443C4C" stroke-miterlimit="10"></path><path d="M15.9268 44.4536H59.676" stroke="#443C4C" stroke-miterlimit="10"></path><path d="M59.676 49.5664H15.9268" stroke="#443C4C" stroke-miterlimit="10"></path><path d="M74.2867 80.0002H2.73063C1.21426 80.0002 -0.0152261 78.7491 0.000142528 77.2189L0.415094 28.6141L37.3048 58.5462L45.5475 52.11L75.6443 28.6089L77.0223 77.1569C77.0684 78.7078 75.8287 79.995 74.2918 79.995L74.2867 80.0002Z" fill="#ECEBEC"></path><path d="M44.1494 73.3933L58.1041 55.4081L66.4287 61.7513L84.579 43.2905" stroke="#BD96ED" stroke-width="3" stroke-linecap="round" stroke-linejoin="round"></path><path d="M86.5108 46.8161L88.4626 39.3408L81.0703 41.3673L86.5108 46.8161Z" fill="#BD96ED"></path></g><defs><clipPath id="clip0_141_370"><rect width="88.4615" height="80" fill="white"></rect></clipPath></defs></svg>