<svg xmlns="http://www.w3.org/2000/svg" width="85" height="80" viewBox="0 0 85 80" fill="none"><g clip-path="url(#clip0_141_426)"><path d="M74.404 80.0004H2.82014C1.25347 80.0004 -0.0152709 78.7131 0.000138902 77.1364L0.416204 28.6143H75.8422L77.224 77.0795C77.2702 78.6769 75.9963 80.0004 74.404 80.0004Z" fill="#E0DFE1"></path><path d="M74.4861 80.0002H2.73796C1.21752 80.0002 -0.0152669 78.7491 0.00014291 77.2189L0.416208 28.6141L37.4049 58.5462L45.6698 52.11L75.8473 28.6089L77.2291 77.1569C77.2753 78.7078 76.0323 79.995 74.4913 79.995L74.4861 80.0002Z" fill="#ECEBEC"></path><path d="M34.1122 1.42199L0.416016 28.6142H75.842L42.1458 1.42199C39.7984 -0.470091 36.4647 -0.470091 34.1173 1.42199H34.1122Z" fill="#B4B1B8"></path><path d="M71.8616 70.5189H4.32031V3.42746L71.1271 2.54346L71.8616 70.5189Z" fill="#F9FBFA"></path><path d="M74.4861 80.0002H2.73796C1.21752 80.0002 -0.0152669 78.7491 0.00014291 77.2189L0.416208 28.6141L37.4049 58.5462L45.6698 52.11L75.8473 28.6089L77.2291 77.1569C77.2753 78.7078 76.0323 79.995 74.4913 79.995L74.4861 80.0002Z" fill="#ECEBEC"></path><path d="M35.7357 34.2486L37.2151 38.2189C37.7955 39.775 37.0096 41.5171 35.4635 42.1013C33.9174 42.6855 32.1863 41.8945 31.6059 40.3385L28.9092 33.1113L35.7306 34.2486H35.7357Z" stroke="#443C4C" stroke-miterlimit="10"></path><path d="M39.5729 15.5039L45.7419 32.0467C46.4251 33.8819 44.879 35.774 42.9579 35.4535L35.7358 34.2438L28.9144 33.1064L25.6321 32.5585C23.711 32.2379 22.8532 29.9426 24.0911 28.4279L35.2478 14.7749C36.4858 13.2602 38.8846 13.6635 39.5729 15.5039V15.5039Z" stroke="#443C4C" stroke-miterlimit="10"></path><path d="M44.8889 29.7667C48.0839 28.3296 49.6557 24.6178 48.4075 21.273C47.1593 17.9231 43.5483 16.1706 40.1992 17.2045" stroke="#443C4C" stroke-miterlimit="10"></path><path d="M49.748 14.9454L53.0303 11.001" stroke="#443C4C" stroke-miterlimit="10"></path><path d="M58.5991 25.9414L53.5498 25.1401" stroke="#443C4C" stroke-miterlimit="10"></path><path d="M51.6494 20.0425L59.4108 17.1113" stroke="#443C4C" stroke-miterlimit="10"></path><path d="M68.8252 45.4155H68.8201C67.9492 45.4155 67.2432 46.1261 67.2432 47.0026V75.6165C67.2432 76.493 67.9492 77.2036 68.8201 77.2036H68.8252C69.6962 77.2036 70.4022 76.493 70.4022 75.6165V47.0026C70.4022 46.1261 69.6962 45.4155 68.8252 45.4155Z" fill="#BD96ED"></path><path d="M57.6558 50.0704L57.6522 50.0741C57.0363 50.6939 57.0363 51.6987 57.6522 52.3185L77.756 72.5516C78.3719 73.1714 79.3703 73.1714 79.9862 72.5516L79.9898 72.5479C80.6056 71.9282 80.6056 70.9233 79.9898 70.3035L59.8859 50.0704C59.2701 49.4506 58.2716 49.4506 57.6558 50.0704Z" fill="#BD96ED"></path><path d="M53.0303 61.3072V61.3123C53.0303 62.1889 53.7363 62.8994 54.6072 62.8994H83.0384C83.9093 62.8994 84.6153 62.1889 84.6153 61.3123V61.3072C84.6153 60.4306 83.9093 59.7201 83.0384 59.7201H54.6072C53.7363 59.7201 53.0303 60.4306 53.0303 61.3072Z" fill="#BD96ED"></path><path d="M57.6499 72.5484L57.6535 72.5521C58.2693 73.1719 59.2678 73.1719 59.8836 72.5521L79.9875 52.319C80.6033 51.6992 80.6033 50.6943 79.9875 50.0745L79.9838 50.0709C79.368 49.4511 78.3695 49.4511 77.7537 50.0709L57.6499 70.304C57.034 70.9238 57.034 71.9286 57.6499 72.5484Z" fill="#BD96ED"></path></g><defs><clipPath id="clip0_141_426"><rect width="84.6154" height="80" fill="white"></rect></clipPath></defs></svg>