<svg xmlns="http://www.w3.org/2000/svg" width="238" height="64" viewBox="0 0 238 64" fill="none"><path d="M43.7919 49.9591C45.7659 49.9591 47.3503 49.3176 48.5451 48.0346C49.7399 46.7003 50.649 45.0068 51.2724 42.9541C51.9477 40.85 52.3893 38.5406 52.597 36.026C52.8568 33.46 52.9607 30.9454 52.9087 28.4821C52.9087 26.0188 52.8568 23.7607 52.7529 21.708C52.649 19.6039 52.597 17.9617 52.597 16.7813C52.597 15.755 52.649 14.4976 52.7529 13.0094C52.8568 11.4698 53.0126 9.98156 53.2204 8.54462C53.4282 7.10769 53.688 5.85037 53.9996 4.77268C54.3113 3.64366 54.7009 2.92519 55.1685 2.61727C55.7399 2.25804 56.2334 2.54029 56.649 3.46404C57.1165 4.33646 57.5061 5.56812 57.8178 7.15901C58.1295 8.69858 58.3892 10.4691 58.597 12.4705C58.8567 14.472 59.0645 16.3964 59.2204 18.2439C59.3762 20.0401 59.4801 21.631 59.5321 23.0166C59.584 24.4022 59.61 25.2746 59.61 25.6339C59.61 26.9682 59.558 28.6617 59.4541 30.7145C59.4022 32.7159 59.1944 34.8456 58.8308 37.1037C58.5191 39.3617 58.0256 41.6198 57.3503 43.8778C56.6749 46.0845 55.7399 48.086 54.5451 49.8821C53.4022 51.6783 51.9477 53.1409 50.1815 54.2699C48.4153 55.3989 46.2854 55.9634 43.7919 55.9634C41.714 55.9634 39.5322 55.3733 37.2465 54.1929C34.9608 53.0126 32.6751 51.473 30.3894 49.5742C28.1037 47.7267 25.87 45.6227 23.6882 43.262C21.5063 40.9013 19.4804 38.5406 17.6103 36.1799C15.7402 33.8193 14.0519 31.5869 12.5454 29.4828C11.0908 27.3787 9.92201 25.6082 9.0389 24.1713C8.935 26.4806 8.90903 28.8157 8.96098 31.1763C9.06487 33.537 9.11682 36.103 9.11682 38.8742C9.11682 40.9783 9.01293 43.031 8.80513 45.0325C8.64929 47.0339 8.23371 48.9584 7.55839 50.8059C7.50644 51.0625 7.32463 51.396 7.01294 51.8066C6.7532 52.2171 6.41554 52.6277 5.99996 53.0383C5.58438 53.4488 5.09087 53.808 4.51945 54.116C3.94803 54.4239 3.35063 54.5778 2.72725 54.5778C1.74025 54.5778 1.11688 54.3212 0.857137 53.808C0.597399 53.3462 0.467529 52.7817 0.467529 52.1145C0.467529 51.0881 0.545451 49.8052 0.701294 48.2656C0.857137 46.726 1.03895 45.1095 1.24674 43.4159C1.50648 41.7224 1.76622 40.0289 2.02596 38.3353C2.33765 36.6418 2.59739 35.0766 2.80518 33.6396C3.06491 32.2027 3.24673 30.9967 3.35063 30.0217C3.50647 28.9953 3.58439 28.3281 3.58439 28.0202C3.89608 26.0701 4.10387 24.4535 4.20776 23.1706C4.31166 21.8363 4.36361 20.7329 4.36361 19.8605C4.41555 18.9881 4.44153 18.2696 4.44153 17.7051C4.49348 17.1406 4.59737 16.6274 4.75321 16.1655C3.35063 13.5996 2.20778 11.3415 1.32467 9.39139C0.441555 7.38995 0 5.31152 0 3.15612C0 2.02711 0.129869 1.23166 0.389608 0.76979C0.649346 0.256597 0.935059 0 1.24674 0C1.50648 0 1.7922 0.179617 2.10388 0.538852C2.41557 0.898084 2.70128 1.3343 2.96102 1.84749C3.22076 2.30936 3.42855 2.79689 3.58439 3.31008C3.79218 3.77195 3.94803 4.10553 4.05192 4.31081C4.88308 6.56884 6.05191 9.26309 7.55839 12.3936C9.06487 15.524 10.8051 18.7828 12.7791 22.1698C14.8051 25.5569 17.0129 28.9183 19.4025 32.254C21.844 35.5385 24.3894 38.515 27.0388 41.1835C29.7401 43.8008 32.4933 45.9306 35.2985 47.5728C38.1556 49.1637 40.9867 49.9591 43.7919 49.9591Z" fill="white"></path><path d="M77.6811 36.103C77.2655 36.6675 76.746 37.1293 76.1227 37.4886C75.4993 37.8478 74.824 38.1557 74.0967 38.4123C73.3694 38.6176 72.6162 38.7716 71.837 38.8742C71.1097 38.9768 70.4604 39.0538 69.8889 39.1051C69.7331 40.1828 69.6292 41.2349 69.5772 42.2612C69.5772 43.2876 69.6292 44.2114 69.7331 45.0325C69.8889 45.8536 70.0967 46.5464 70.3565 47.1109C70.6681 47.6754 71.0837 48.0346 71.6032 48.1886C72.2785 48.3939 73.0058 48.2912 73.785 47.8807C74.5642 47.4188 75.3175 46.803 76.0447 46.0332C76.772 45.2634 77.4733 44.3653 78.1486 43.339C78.8239 42.3126 79.4213 41.3375 79.9408 40.4138C80.4603 39.4387 80.9018 38.5663 81.2655 37.7965C81.6291 36.9754 81.8629 36.3852 81.9668 36.026C82.1226 35.5641 82.3564 35.2562 82.6681 35.1022C83.0317 34.9483 83.3694 34.897 83.681 34.9483C83.9927 34.9996 84.2525 35.1792 84.4603 35.4871C84.6681 35.7437 84.72 36.103 84.6161 36.5648C84.5122 36.8727 84.3304 37.4886 84.0707 38.4123C83.8109 39.2847 83.4213 40.2855 82.9018 41.4145C82.4343 42.5435 81.8369 43.7238 81.1096 44.9555C80.4343 46.1358 79.6032 47.2392 78.6161 48.2656C77.6291 49.2406 76.4863 50.0617 75.1876 50.7289C73.9408 51.396 72.5383 51.7296 70.9798 51.7296C69.1097 51.7296 67.6552 51.0881 66.6162 49.8052C65.5773 48.5222 64.876 46.9056 64.5123 44.9555C64.1487 43.0054 64.0968 40.927 64.3565 38.7202C64.5643 36.4622 65.0058 34.3581 65.6812 32.408C66.4084 30.4579 67.2915 28.8413 68.3305 27.5583C69.4214 26.2754 70.6162 25.6339 71.9149 25.6339C73.1616 25.6339 74.2525 26.0701 75.1876 26.9425C76.1746 27.7636 76.9278 28.7387 77.4473 29.8677C77.9668 30.9967 78.2525 32.1514 78.3045 33.3317C78.4084 34.5121 78.2006 35.4358 77.6811 36.103ZM72.85 29.2519C72.4863 29.4058 72.0967 30.073 71.6811 31.2533C71.2655 32.3823 70.8759 33.7679 70.5123 35.4102C71.0837 35.4102 71.6552 35.3588 72.2266 35.2562C72.798 35.1022 73.2136 34.82 73.4733 34.4094C73.6811 34.1015 73.811 33.6653 73.8629 33.1008C73.9149 32.485 73.8889 31.8691 73.785 31.2533C73.7331 30.6375 73.6032 30.1243 73.3954 29.7137C73.2396 29.3032 73.0577 29.1492 72.85 29.2519Z" fill="white"></path><path d="M84.3592 37.0267C84.2553 37.4373 84.0215 37.7452 83.6579 37.9505C83.3462 38.1044 83.0086 38.1557 82.6449 38.1044C82.2813 38.0018 81.9956 37.8222 81.7878 37.5656C81.58 37.2576 81.58 36.8727 81.7878 36.4109L82.2553 35.1022C81.7878 34.6404 81.5281 34.1015 81.4761 33.4857C81.4242 32.8699 81.5281 32.3053 81.7878 31.7922C82.0475 31.2276 82.4112 30.7658 82.8787 30.4065C83.3982 29.996 83.9696 29.7907 84.593 29.7907C85.6839 29.7907 86.2813 30.2013 86.3852 31.0224C86.4891 31.7922 86.3332 32.6646 85.9176 33.6396C86.2293 33.7936 86.7228 33.8193 87.3981 33.7166C88.1254 33.614 88.8007 33.5627 89.4241 33.5627C90.0475 33.5113 90.567 33.614 90.9825 33.8706C91.3981 34.1272 91.502 34.7173 91.2942 35.6411C91.0864 36.5648 90.8527 37.6682 90.5929 38.9512C90.3851 40.2341 90.2293 41.4658 90.1254 42.6461C90.0215 43.7752 90.0215 44.7502 90.1254 45.5713C90.2293 46.3924 90.515 46.803 90.9825 46.803C91.2942 46.803 91.6838 46.3668 92.1514 45.4943C92.6708 44.5706 93.1903 43.5186 93.7098 42.3382C94.2293 41.1579 94.6968 39.9776 95.1124 38.7972C95.528 37.5656 95.7877 36.6418 95.8916 36.026C95.9955 35.5128 96.2033 35.1536 96.515 34.9483C96.8786 34.743 97.2422 34.666 97.6059 34.7173C97.9695 34.7173 98.2552 34.8713 98.463 35.1792C98.7227 35.4358 98.8266 35.8207 98.7747 36.3339C98.7227 36.5905 98.5929 37.155 98.3851 38.0274C98.1773 38.8485 97.8916 39.7979 97.5279 40.8756C97.1643 41.902 96.7228 43.0054 96.2033 44.1857C95.6838 45.3147 95.0604 46.3668 94.3332 47.3418C93.6059 48.3169 92.8007 49.0867 91.9176 49.6512C91.0345 50.267 90.0475 50.5493 88.9566 50.498C87.7098 50.4466 86.8008 49.9078 86.2293 48.8814C85.6579 47.8037 85.2943 46.5464 85.1384 45.1095C84.9826 43.6212 85.0086 42.056 85.2163 40.4138C85.4761 38.7716 85.8137 37.3346 86.2293 36.103C85.9696 36.1543 85.7098 36.1799 85.4501 36.1799C85.1904 36.1799 84.9306 36.1799 84.6709 36.1799C84.515 36.4365 84.4112 36.7188 84.3592 37.0267Z" fill="white"></path><path d="M109.116 16.3964C109.116 15.1648 109.453 14.318 110.129 13.8561C110.804 13.343 111.531 13.112 112.311 13.1633C113.09 13.2147 113.765 13.4969 114.336 14.0101C114.96 14.5233 115.194 15.1904 115.038 16.0115C114.934 16.6274 114.778 17.8077 114.57 19.5526C114.362 21.2461 114.129 23.2219 113.869 25.4799C113.661 27.738 113.479 30.073 113.323 32.485C113.168 34.897 113.09 37.1293 113.09 39.1821C113.09 41.2349 113.168 42.9284 113.323 44.2627C113.531 45.5457 113.895 46.1872 114.414 46.1872C114.882 46.1872 115.349 45.7509 115.817 44.8785C116.336 44.0061 116.83 43.0054 117.297 41.8764C117.765 40.696 118.155 39.567 118.466 38.4893C118.83 37.3603 119.064 36.5392 119.168 36.026C119.323 35.5128 119.557 35.1792 119.869 35.0253C120.233 34.82 120.57 34.7687 120.882 34.8713C121.246 34.9226 121.531 35.1022 121.739 35.4102C121.999 35.7181 122.077 36.1286 121.973 36.6418C121.869 37.155 121.635 38.1557 121.271 39.644C120.908 41.1322 120.362 42.6718 119.635 44.2627C118.908 45.8023 117.947 47.1879 116.752 48.4195C115.609 49.6512 114.233 50.267 112.622 50.267C111.427 50.267 110.492 49.8051 109.817 48.8814C109.194 47.9063 108.7 46.649 108.337 45.1095C107.921 46.0845 107.35 46.9569 106.622 47.7267C105.947 48.4965 105.09 49.061 104.051 49.4203C102.908 49.8308 101.921 49.8821 101.09 49.5742C99.5833 49.215 98.3885 48.4195 97.5054 47.1879C96.6223 45.9049 96.0249 44.4423 95.7132 42.8001C95.3496 41.1066 95.2976 39.3617 95.5574 37.5656C95.8171 35.7694 96.3366 34.1528 97.1158 32.7159C97.947 31.279 99.0379 30.1756 100.389 29.4058C101.739 28.5847 103.376 28.3281 105.298 28.636C106.337 28.79 107.246 29.3288 108.025 30.2526C108.233 27.3274 108.466 24.6075 108.726 22.0929C108.986 19.5782 109.116 17.6794 109.116 16.3964ZM107.324 35.4102C107.22 34.6917 107.012 33.9732 106.7 33.2548C106.44 32.5363 106.025 32.1257 105.453 32.0231C104.622 31.8691 103.869 32.1257 103.194 32.7929C102.57 33.46 102.051 34.3325 101.635 35.4102C101.22 36.4365 100.908 37.5912 100.7 38.8742C100.544 40.1572 100.492 41.3888 100.544 42.5692C100.648 43.6982 100.882 44.6732 101.246 45.4943C101.609 46.2641 102.129 46.7003 102.804 46.803C103.479 46.9056 104.103 46.5977 104.674 45.8792C105.298 45.1608 105.817 44.237 106.233 43.108C106.7 41.979 107.038 40.7217 107.246 39.3361C107.453 37.9504 107.479 36.6418 107.324 35.4102Z" fill="white"></path><path d="M133.57 58.8886C133.57 59.915 133.232 60.8387 132.557 61.6599C131.881 62.481 131.128 63.0968 130.297 63.5073C129.518 63.9179 128.791 64.0718 128.115 63.9692C127.492 63.8666 127.232 63.379 127.336 62.5066C127.388 61.8395 127.44 60.8901 127.492 59.6584C127.596 58.4267 127.7 57.0411 127.804 55.5016C127.907 53.962 127.985 52.2941 128.037 50.498C128.141 48.7531 128.245 46.9826 128.349 45.1864C127.829 46.5721 127.102 47.7524 126.167 48.7275C125.648 49.2406 125.024 49.5229 124.297 49.5742C123.622 49.6255 122.946 49.4972 122.271 49.1893C121.648 48.8814 121.076 48.4452 120.557 47.8807C120.037 47.2649 119.7 46.572 119.544 45.8023C119.388 45.0325 119.284 44.0061 119.232 42.7231C119.18 41.4401 119.154 40.0545 119.154 38.5663C119.154 37.078 119.18 35.5641 119.232 34.0245C119.284 32.4336 119.31 30.9197 119.31 29.4828C119.362 28.5591 119.7 27.8919 120.323 27.4814C120.998 27.0195 121.726 26.7629 122.505 26.7116C123.284 26.6089 123.985 26.7116 124.609 27.0195C125.284 27.2761 125.596 27.6866 125.544 28.2511C125.44 29.8934 125.31 31.6639 125.154 33.5627C124.998 35.4615 124.842 37.2576 124.687 38.9512C124.583 40.5934 124.531 42.0047 124.531 43.185C124.583 44.314 124.765 44.9298 125.076 45.0325C125.388 45.1351 125.674 44.9298 125.933 44.4167C126.245 43.9035 126.531 43.2107 126.791 42.3382C127.102 41.4658 127.388 40.5164 127.648 39.49C127.907 38.4123 128.115 37.3859 128.271 36.4109C128.479 35.3845 128.635 34.4864 128.739 33.7166C128.894 32.8955 128.972 32.3054 128.972 31.9461C129.596 31.6382 129.985 31.6382 130.141 31.9461C130.349 32.254 130.531 32.8185 130.687 33.6396C130.739 33.8449 130.739 34.3581 130.687 35.1792C130.687 35.949 130.583 36.8984 130.375 38.0274C130.219 39.1051 129.959 40.2855 129.596 41.5684C129.284 42.8514 128.868 44.0574 128.349 45.1864C128.505 42.3639 128.635 39.6953 128.739 37.1807C128.842 34.6147 128.92 32.5876 128.972 31.0994C128.972 30.4835 129.284 30.0217 129.907 29.7137C130.531 29.3545 131.206 29.1749 131.933 29.1749C132.661 29.1236 133.31 29.2519 133.881 29.5598C134.453 29.8677 134.713 30.3296 134.661 30.9454C134.505 32.0231 134.375 33.4087 134.271 35.1022C134.167 36.7958 134.063 38.6176 133.959 40.5677C133.907 42.4665 133.855 44.4166 133.803 46.4181C133.752 48.3682 133.7 50.19 133.648 51.8836C133.648 53.5771 133.622 55.0397 133.57 56.2714C133.57 57.5543 133.57 58.4267 133.57 58.8886Z" fill="white"></path><path d="M168.178 57.8109C165.528 57.8109 162.775 57.3747 159.918 56.5023C157.113 55.6299 154.516 54.3469 152.126 52.6534C149.736 51.0112 147.762 48.984 146.204 46.572C144.697 44.1087 143.944 41.3118 143.944 38.1814C143.944 36.6418 144.152 35.5641 144.568 34.9483C144.983 34.2811 145.347 33.9476 145.659 33.9476C146.178 33.9476 146.723 34.4351 147.295 35.4102C147.918 36.3339 148.671 37.6169 149.555 39.2591C150.49 41.0039 151.555 42.6205 152.749 44.1087C153.996 45.5457 155.399 46.803 156.957 47.8807C158.516 48.9584 160.23 49.8051 162.1 50.421C164.022 51.0368 166.126 51.3447 168.412 51.3447C171.736 51.3447 174.593 50.8059 176.983 49.7282C179.424 48.6505 181.502 47.2135 183.217 45.4174C184.931 43.6212 186.334 41.5428 187.424 39.1821C188.515 36.8214 189.398 34.3838 190.074 31.8691C190.749 29.3032 191.243 26.7372 191.554 24.1713C191.918 21.554 192.204 19.0907 192.411 16.7813C192.411 16.4734 192.411 16.0372 192.411 15.4727C192.463 14.8569 192.489 14.1897 192.489 13.4713C192.541 12.7015 192.567 11.9317 192.567 11.1619C192.619 10.3408 192.697 9.59667 192.801 8.92952C189.061 9.23743 185.243 9.64799 181.347 10.1612C177.502 10.6744 173.632 11.1619 169.736 11.6238C165.84 12.0343 161.918 12.3679 157.97 12.6245C154.074 12.8298 150.23 12.8041 146.438 12.5475C145.866 12.4962 145.165 12.3936 144.334 12.2396C143.503 12.0343 142.697 11.7777 141.918 11.4698C141.191 11.1619 140.568 10.7513 140.048 10.2382C139.529 9.72496 139.269 9.10914 139.269 8.39067C139.269 7.77484 139.762 7.31297 140.749 7.00505C141.736 6.69714 142.905 6.49186 144.256 6.38922C145.658 6.23527 147.113 6.18395 148.62 6.23527C150.126 6.23527 151.399 6.23527 152.438 6.23527C157.269 6.08131 161.554 5.95301 165.295 5.85038C169.035 5.69642 172.412 5.56812 175.425 5.46548C178.489 5.31152 181.269 5.20889 183.762 5.15757C186.256 5.05493 188.723 4.97795 191.165 4.92663C191.476 4.92663 192.256 4.87531 193.502 4.77268C194.749 4.67004 196.048 4.61872 197.398 4.61872C198.801 4.61872 200.022 4.74701 201.061 5.00361C202.152 5.20888 202.697 5.67076 202.697 6.38922C202.697 6.95374 202.463 7.38995 201.996 7.69786C201.58 8.00577 201.009 8.23671 200.282 8.39067C199.554 8.54463 198.723 8.67292 197.788 8.77556C196.853 8.82688 195.918 8.85254 194.983 8.85254C195.243 9.72496 195.476 10.7513 195.684 11.9317C195.944 13.112 196.152 14.3693 196.308 15.7036C196.515 16.9866 196.671 18.2696 196.775 19.5526C196.879 20.8355 196.931 22.0159 196.931 23.0936C196.931 27.3531 196.307 31.5612 195.061 35.7181C193.866 39.8236 192.048 43.5186 189.606 46.803C187.217 50.0874 184.23 52.7303 180.645 54.7318C177.061 56.7845 172.905 57.8109 168.178 57.8109Z" fill="white"></path><path d="M207.819 47.5728C205.897 47.5728 204.365 47.0852 203.222 46.1102C202.079 45.1351 201.274 43.9291 200.806 42.4922C200.391 41.0553 200.287 39.49 200.495 37.7965C200.65 36.103 201.066 34.5634 201.741 33.1778C202.469 31.7408 203.404 30.5605 204.546 29.6368C205.689 28.713 207.04 28.3025 208.598 28.4051C210.417 28.5077 211.897 29.0466 213.04 30.0217C214.183 30.9967 215.014 32.2027 215.533 33.6396C216.053 35.0766 216.261 36.6162 216.157 38.2584C216.105 39.8493 215.741 41.3375 215.066 42.7231C214.391 44.1087 213.43 45.2634 212.183 46.1872C210.988 47.1109 209.533 47.5728 207.819 47.5728ZM208.832 44.1087C209.404 44.1601 209.871 43.9035 210.235 43.339C210.598 42.7231 210.858 41.9533 211.014 41.0296C211.17 40.0545 211.222 39.0025 211.17 37.8735C211.17 36.7444 211.04 35.6924 210.78 34.7173C210.572 33.7423 210.261 32.9212 209.845 32.254C209.43 31.5869 208.936 31.2533 208.365 31.2533C207.845 31.2533 207.404 31.5612 207.04 32.1771C206.676 32.7929 206.391 33.5627 206.183 34.4864C206.027 35.4102 205.949 36.4365 205.949 37.5656C205.949 38.6433 206.053 39.6696 206.261 40.6447C206.469 41.5684 206.78 42.3639 207.196 43.031C207.611 43.6982 208.157 44.0574 208.832 44.1087Z" fill="white"></path><path d="M231.013 36.103C230.597 36.6675 230.078 37.1293 229.455 37.4886C228.831 37.8478 228.156 38.1557 227.429 38.4123C226.701 38.6176 225.948 38.7716 225.169 38.8742C224.442 38.9768 223.792 39.0538 223.221 39.1051C223.065 40.1828 222.961 41.2349 222.909 42.2612C222.909 43.2876 222.961 44.2114 223.065 45.0325C223.221 45.8536 223.429 46.5464 223.688 47.1109C224 47.6754 224.416 48.0346 224.935 48.1886C225.61 48.3939 226.338 48.2912 227.117 47.8807C227.896 47.4188 228.649 46.803 229.377 46.0332C230.104 45.2634 230.805 44.3653 231.481 43.339C232.156 42.3126 232.753 41.3375 233.273 40.4138C233.792 39.4387 234.234 38.5663 234.597 37.7965C234.961 36.9754 235.195 36.3852 235.299 36.026C235.455 35.5641 235.688 35.2562 236 35.1022C236.364 34.9483 236.701 34.897 237.013 34.9483C237.325 34.9996 237.584 35.1792 237.792 35.4871C238 35.7437 238.052 36.103 237.948 36.5648C237.844 36.8727 237.662 37.4886 237.403 38.4123C237.143 39.2847 236.753 40.2855 236.234 41.4145C235.766 42.5435 235.169 43.7238 234.442 44.9555C233.766 46.1358 232.935 47.2392 231.948 48.2656C230.961 49.2406 229.818 50.0617 228.52 50.7289C227.273 51.396 225.87 51.7296 224.312 51.7296C222.442 51.7296 220.987 51.0881 219.948 49.8052C218.909 48.5222 218.208 46.9056 217.844 44.9555C217.481 43.0054 217.429 40.927 217.688 38.7202C217.896 36.4622 218.338 34.3581 219.013 32.408C219.74 30.4579 220.623 28.8413 221.662 27.5583C222.753 26.2754 223.948 25.6339 225.247 25.6339C226.494 25.6339 227.584 26.0701 228.52 26.9425C229.507 27.7636 230.26 28.7387 230.779 29.8677C231.299 30.9967 231.584 32.1514 231.636 33.3317C231.74 34.5121 231.533 35.4358 231.013 36.103ZM226.182 29.2519C225.818 29.4058 225.429 30.073 225.013 31.2533C224.597 32.3823 224.208 33.7679 223.844 35.4102C224.416 35.4102 224.987 35.3588 225.559 35.2562C226.13 35.1022 226.546 34.82 226.805 34.4094C227.013 34.1015 227.143 33.6653 227.195 33.1008C227.247 32.485 227.221 31.8691 227.117 31.2533C227.065 30.6375 226.935 30.1243 226.727 29.7137C226.572 29.3032 226.39 29.1492 226.182 29.2519Z" fill="white"></path></svg>