<svg xmlns="http://www.w3.org/2000/svg" width="179" height="48" viewBox="0 0 179 48" fill="none"><path d="M32.8439 37.4693C34.3244 37.4693 35.5127 36.9882 36.4088 36.026C37.3049 35.0253 37.9868 33.7551 38.4543 32.2155C38.9608 30.6375 39.2919 28.9055 39.4478 27.0195C39.6426 25.095 39.7205 23.209 39.6816 21.3616C39.6816 19.5141 39.6426 17.8205 39.5647 16.281C39.4867 14.7029 39.4478 13.4713 39.4478 12.586C39.4478 11.8162 39.4867 10.8732 39.5647 9.75704C39.6426 8.60236 39.7595 7.48617 39.9153 6.40847C40.0712 5.33077 40.266 4.38778 40.4997 3.57951C40.7335 2.73274 41.0257 2.19389 41.3763 1.96296C41.8049 1.69353 42.175 1.90522 42.4867 2.59803C42.8374 3.25235 43.1296 4.17609 43.3633 5.36926C43.5971 6.52394 43.7919 7.85182 43.9478 9.3529C44.1426 10.854 44.2984 12.2973 44.4153 13.6829C44.5322 15.0301 44.6101 16.2232 44.649 17.2624C44.688 18.3017 44.7075 18.956 44.7075 19.2254C44.7075 20.2261 44.6685 21.4963 44.5906 23.0358C44.5516 24.5369 44.3958 26.1342 44.1231 27.8278C43.8893 29.5213 43.5192 31.2148 43.0127 32.9083C42.5062 34.5634 41.8049 36.0645 40.9088 37.4116C40.0517 38.7587 38.9608 39.8557 37.6361 40.7024C36.3114 41.5492 34.7141 41.9726 32.8439 41.9726C31.2855 41.9726 29.6491 41.53 27.9349 40.6447C26.2206 39.7594 24.5063 38.6048 22.7921 37.1807C21.0778 35.795 19.4025 34.217 17.7661 32.4465C16.1298 30.676 14.6103 28.9055 13.2077 27.135C11.8051 25.3644 10.5389 23.6902 9.40903 22.1121C8.31812 20.534 7.44151 19.2062 6.77917 18.1285C6.70125 19.8605 6.68177 21.6117 6.72073 23.3822C6.79865 25.1528 6.83762 27.0772 6.83762 29.1556C6.83762 30.7337 6.75969 32.2733 6.60385 33.7744C6.48697 35.2754 6.17528 36.7188 5.66879 38.1044C5.62983 38.2968 5.49347 38.547 5.2597 38.8549C5.0649 39.1629 4.81166 39.4708 4.49997 39.7787C4.18828 40.0866 3.81816 40.356 3.38959 40.587C2.96102 40.8179 2.51297 40.9334 2.04544 40.9334C1.30519 40.9334 0.837657 40.7409 0.642853 40.356C0.448049 40.0096 0.350647 39.5862 0.350647 39.0859C0.350647 38.3161 0.409088 37.3539 0.52597 36.1992C0.642853 35.0445 0.779216 33.8321 0.935059 32.5619C1.12986 31.2918 1.32467 30.0217 1.51947 28.7515C1.75323 27.4814 1.94804 26.3074 2.10388 25.2297C2.29869 24.152 2.43505 23.2475 2.51297 22.5162C2.62985 21.7465 2.68829 21.2461 2.68829 21.0152C2.92206 19.5526 3.0779 18.3402 3.15582 17.3779C3.23374 16.3772 3.2727 15.5497 3.2727 14.8954C3.31167 14.241 3.33115 13.7022 3.33115 13.2788C3.37011 12.8554 3.44803 12.4705 3.56491 12.1241C2.51297 10.1997 1.65583 8.50614 0.9935 7.04354C0.331167 5.54246 0 3.98364 0 2.36709C0 1.52033 0.097402 0.923746 0.292206 0.577343C0.48701 0.192448 0.701294 0 0.935059 0C1.12986 0 1.34415 0.134713 1.57791 0.404139C1.81168 0.673563 2.02596 1.00072 2.22076 1.38562C2.41557 1.73202 2.57141 2.09767 2.68829 2.48256C2.84414 2.82897 2.96102 3.07915 3.03894 3.2331C3.66231 4.92663 4.53893 6.94732 5.66879 9.29517C6.79865 11.643 8.10384 14.0871 9.58435 16.6274C11.1038 19.1677 12.7597 21.6887 14.5518 24.1905C16.383 26.6538 18.2921 28.8862 20.2791 30.8877C22.305 32.8506 24.37 34.4479 26.4738 35.6796C28.6167 36.8727 30.7401 37.4693 32.8439 37.4693Z" fill="#6001D2"></path><path d="M58.2608 27.0772C57.9491 27.5006 57.5595 27.847 57.092 28.1164C56.6245 28.3859 56.118 28.6168 55.5725 28.8092C55.0271 28.9632 54.4621 29.0787 53.8777 29.1556C53.3323 29.2326 52.8453 29.2904 52.4167 29.3288C52.2998 30.1371 52.2219 30.9262 52.1829 31.6959C52.1829 32.4657 52.2219 33.1585 52.2998 33.7744C52.4167 34.3902 52.5725 34.9098 52.7673 35.3332C53.0011 35.7566 53.3128 36.026 53.7024 36.1414C54.2089 36.2954 54.7543 36.2184 55.3388 35.9105C55.9232 35.5641 56.4881 35.1022 57.0335 34.5249C57.579 33.9476 58.105 33.274 58.6115 32.5042C59.1179 31.7344 59.566 31.0031 59.9556 30.3103C60.3452 29.579 60.6764 28.9247 60.9491 28.3474C61.2218 27.7315 61.3972 27.2889 61.4751 27.0195C61.592 26.6731 61.7673 26.4421 62.001 26.3267C62.2738 26.2112 62.527 26.1727 62.7608 26.2112C62.9945 26.2497 63.1894 26.3844 63.3452 26.6153C63.501 26.8078 63.54 27.0772 63.4621 27.4236C63.3842 27.6546 63.2478 28.1164 63.053 28.8092C62.8582 29.4636 62.566 30.2141 62.1764 31.0609C61.8257 31.9076 61.3777 32.7929 60.8322 33.7166C60.3257 34.6019 59.7024 35.4294 58.9621 36.1992C58.2219 36.9305 57.3647 37.5463 56.3907 38.0467C55.4556 38.547 54.4037 38.7972 53.2349 38.7972C51.8323 38.7972 50.7414 38.3161 49.9622 37.3539C49.183 36.3916 48.657 35.1792 48.3843 33.7166C48.1115 32.254 48.0726 30.6952 48.2674 29.0402C48.4232 27.3466 48.7544 25.7686 49.2609 24.306C49.8063 22.8434 50.4687 21.631 51.2479 20.6688C52.066 19.7065 52.9621 19.2254 53.9362 19.2254C54.8712 19.2254 55.6894 19.5526 56.3907 20.2069C57.131 20.8227 57.6959 21.554 58.0855 22.4008C58.4751 23.2475 58.6894 24.1135 58.7283 24.9988C58.8063 25.8841 58.6504 26.5769 58.2608 27.0772ZM54.6375 21.9389C54.3647 22.0544 54.0725 22.5547 53.7608 23.44C53.4492 24.2867 53.157 25.326 52.8842 26.5576C53.3128 26.5576 53.7414 26.5191 54.1699 26.4421C54.5985 26.3267 54.9102 26.115 55.105 25.8071C55.2608 25.5761 55.3582 25.249 55.3972 24.8256C55.4362 24.3637 55.4167 23.9019 55.3388 23.44C55.2998 22.9781 55.2024 22.5932 55.0465 22.2853C54.9297 21.9774 54.7933 21.8619 54.6375 21.9389Z" fill="#6001D2"></path><path d="M63.2694 27.77C63.1915 28.0779 63.0162 28.3089 62.7434 28.4628C62.5097 28.5783 62.2564 28.6168 61.9837 28.5783C61.711 28.5013 61.4967 28.3666 61.3408 28.1742C61.185 27.9432 61.185 27.6546 61.3408 27.3082L61.6915 26.3267C61.3408 25.9803 61.146 25.5761 61.1071 25.1143C61.0681 24.6524 61.146 24.229 61.3408 23.8441C61.5356 23.4207 61.8084 23.0743 62.159 22.8049C62.5486 22.497 62.9772 22.343 63.4447 22.343C64.2629 22.343 64.7109 22.651 64.7889 23.2668C64.8668 23.8441 64.7499 24.4984 64.4382 25.2297C64.672 25.3452 65.0421 25.3644 65.5486 25.2875C66.0941 25.2105 66.6005 25.172 67.0681 25.172C67.5356 25.1335 67.9252 25.2105 68.2369 25.4029C68.5486 25.5954 68.6265 26.038 68.4707 26.7308C68.3148 27.4236 68.1395 28.2511 67.9447 29.2134C67.7888 30.1756 67.672 31.0994 67.594 31.9846C67.5161 32.8314 67.5161 33.5627 67.594 34.1785C67.672 34.7943 67.8863 35.1022 68.2369 35.1022C68.4707 35.1022 68.7629 34.7751 69.1135 34.1208C69.5031 33.428 69.8927 32.6389 70.2823 31.7537C70.6719 30.8684 71.0226 29.9832 71.3343 29.0979C71.646 28.1742 71.8408 27.4814 71.9187 27.0195C71.9966 26.6346 72.1525 26.3652 72.3862 26.2112C72.6589 26.0573 72.9317 25.9995 73.2044 26.038C73.4771 26.038 73.6914 26.1535 73.8473 26.3844C74.0421 26.5769 74.12 26.8655 74.081 27.2504C74.0421 27.4429 73.9447 27.8663 73.7888 28.5206C73.633 29.1364 73.4187 29.8484 73.146 30.6567C72.8732 31.4265 72.5421 32.254 72.1525 33.1393C71.7629 33.986 71.2953 34.7751 70.7499 35.5064C70.2044 36.2377 69.6005 36.815 68.9382 37.2384C68.2759 37.7003 67.5356 37.912 66.7174 37.8735C65.7824 37.835 65.1006 37.4308 64.672 36.6611C64.2434 35.8528 63.9707 34.9098 63.8538 33.8321C63.7369 32.7159 63.7564 31.542 63.9123 30.3103C64.1071 29.0787 64.3603 28.001 64.672 27.0772C64.4772 27.1157 64.2824 27.135 64.0876 27.135C63.8928 27.135 63.698 27.135 63.5032 27.135C63.3863 27.3274 63.3084 27.5391 63.2694 27.77Z" fill="#6001D2"></path><path d="M81.8368 12.2973C81.8368 11.3736 82.09 10.7385 82.5965 10.3921C83.103 10.0072 83.6485 9.83402 84.2329 9.87251C84.8173 9.91099 85.3238 10.1227 85.7523 10.5076C86.2199 10.8925 86.3952 11.3928 86.2783 12.0087C86.2004 12.4705 86.0835 13.3558 85.9277 14.6644C85.7718 15.9346 85.5965 17.4164 85.4017 19.1099C85.2459 20.8035 85.1095 22.5547 84.9926 24.3637C84.8757 26.1727 84.8173 27.847 84.8173 29.3866C84.8173 30.9262 84.8757 32.1963 84.9926 33.197C85.1485 34.1593 85.4212 34.6404 85.8108 34.6404C86.1614 34.6404 86.5121 34.3132 86.8627 33.6589C87.2523 33.0046 87.6225 32.254 87.9731 31.4073C88.3238 30.522 88.616 29.6752 88.8497 28.867C89.1225 28.0202 89.2978 27.4044 89.3757 27.0195C89.4926 26.6346 89.6679 26.3844 89.9017 26.2689C90.1744 26.115 90.4276 26.0765 90.6614 26.1535C90.9341 26.192 91.1484 26.3267 91.3043 26.5576C91.4991 26.7886 91.5575 27.0965 91.4796 27.4814C91.4017 27.8663 91.2263 28.6168 90.9536 29.733C90.6809 30.8492 90.2718 32.0039 89.7263 33.197C89.1809 34.3517 88.4601 35.3909 87.564 36.3147C86.7069 37.2384 85.6744 37.7003 84.4666 37.7003C83.5705 37.7003 82.8692 37.3539 82.3628 36.6611C81.8952 35.9298 81.5251 34.9868 81.2524 33.8321C80.9407 34.5634 80.5121 35.2177 79.9667 35.795C79.4602 36.3724 78.8173 36.7958 78.0381 37.0652C77.181 37.3731 76.4407 37.4116 75.8174 37.1807C74.6875 36.9112 73.7914 36.3147 73.1291 35.3909C72.4667 34.4287 72.0187 33.3317 71.7849 32.1001C71.5122 30.8299 71.4732 29.5213 71.668 28.1742C71.8628 26.827 72.2524 25.6146 72.8369 24.5369C73.4602 23.4592 74.2784 22.6317 75.2914 22.0544C76.3044 21.4385 77.5316 21.2461 78.9732 21.477C79.7524 21.5925 80.4342 21.9966 81.0186 22.6894C81.1745 20.4956 81.3498 18.4556 81.5446 16.5696C81.7394 14.6837 81.8368 13.2596 81.8368 12.2973ZM80.4926 26.5576C80.4147 26.0188 80.2589 25.4799 80.0251 24.9411C79.8303 24.4022 79.5186 24.0943 79.0901 24.0173C78.4667 23.9019 77.9017 24.0943 77.3953 24.5947C76.9277 25.095 76.5381 25.7493 76.2264 26.5576C75.9148 27.3274 75.681 28.1934 75.5251 29.1556C75.4083 30.1179 75.3693 31.0416 75.4083 31.9269C75.4862 32.7736 75.6615 33.5049 75.9342 34.1208C76.207 34.6981 76.5966 35.0253 77.1031 35.1022C77.6095 35.1792 78.0771 34.9483 78.5056 34.4094C78.9732 33.8706 79.3628 33.1778 79.6745 32.331C80.0251 31.4842 80.2784 30.5413 80.4342 29.502C80.59 28.4628 80.6095 27.4814 80.4926 26.5576Z" fill="#6001D2"></path><path d="M100.177 44.1665C100.177 44.9363 99.924 45.6291 99.4175 46.2449C98.911 46.8607 98.3461 47.3226 97.7227 47.6305C97.1383 47.9384 96.5929 48.0539 96.0864 47.9769C95.6189 47.8999 95.4241 47.5343 95.502 46.88C95.5409 46.3796 95.5799 45.6675 95.6189 44.7438C95.6968 43.8201 95.7747 42.7809 95.8526 41.6262C95.9305 40.4715 95.989 39.2206 96.0279 37.8735C96.1059 36.5648 96.1838 35.237 96.2617 33.8898C95.8721 34.929 95.3267 35.8143 94.6254 36.5456C94.2358 36.9305 93.7682 37.1422 93.2228 37.1807C92.7163 37.2192 92.2098 37.1229 91.7033 36.892C91.2358 36.6611 90.8072 36.3339 90.4176 35.9105C90.028 35.4486 89.7747 34.929 89.6579 34.3517C89.541 33.7744 89.4631 33.0046 89.4241 32.0423C89.3851 31.0801 89.3657 30.0409 89.3657 28.9247C89.3657 27.8085 89.3851 26.6731 89.4241 25.5184C89.4631 24.3252 89.4825 23.1898 89.4825 22.1121C89.5215 21.4193 89.7747 20.9189 90.2423 20.611C90.7488 20.2646 91.2942 20.0722 91.8786 20.0337C92.463 19.9567 92.989 20.0337 93.4565 20.2646C93.963 20.4571 94.1968 20.765 94.1578 21.1884C94.0799 22.42 93.9825 23.7479 93.8656 25.172C93.7487 26.5961 93.6319 27.9432 93.515 29.2134C93.4371 30.445 93.3981 31.5035 93.3981 32.3887C93.4371 33.2355 93.5734 33.6974 93.8072 33.7744C94.041 33.8513 94.2552 33.6974 94.45 33.3125C94.6838 32.9276 94.8981 32.408 95.0929 31.7537C95.3267 31.0994 95.5409 30.3873 95.7357 29.6175C95.9305 28.8092 96.0864 28.0395 96.2033 27.3082C96.3591 26.5384 96.476 25.8648 96.5539 25.2875C96.6708 24.6716 96.7292 24.229 96.7292 23.9596C97.1968 23.7287 97.489 23.7287 97.6059 23.9596C97.7617 24.1905 97.8981 24.6139 98.0149 25.2297C98.0539 25.3837 98.0539 25.7686 98.0149 26.3844C98.0149 26.9618 97.937 27.6738 97.7812 28.5206C97.6643 29.3288 97.4695 30.2141 97.1968 31.1763C96.963 32.1386 96.6513 33.0431 96.2617 33.8898C96.3786 31.7729 96.476 29.7715 96.5539 27.8855C96.6318 25.961 96.6903 24.4407 96.7292 23.3245C96.7292 22.8626 96.963 22.5162 97.4305 22.2853C97.8981 22.0159 98.4046 21.8812 98.95 21.8812C99.4955 21.8427 99.9825 21.9389 100.411 22.1698C100.84 22.4008 101.034 22.7472 100.995 23.209C100.879 24.0173 100.781 25.0565 100.703 26.3267C100.625 27.5968 100.547 28.9632 100.469 30.4258C100.431 31.8499 100.392 33.3125 100.353 34.8136C100.314 36.2762 100.275 37.6425 100.236 38.9127C100.236 40.1828 100.216 41.2798 100.177 42.2035C100.177 43.1657 100.177 43.8201 100.177 44.1665Z" fill="#6001D2"></path><path d="M126.133 43.3582C124.146 43.3582 122.081 43.031 119.939 42.3767C117.835 41.7224 115.887 40.7602 114.094 39.49C112.302 38.2584 110.822 36.738 109.653 34.929C108.523 33.0816 107.958 30.9839 107.958 28.636C107.958 27.4814 108.114 26.6731 108.426 26.2112C108.737 25.7109 109.01 25.4607 109.244 25.4607C109.633 25.4607 110.043 25.8263 110.471 26.5576C110.939 27.2504 111.504 28.2127 112.166 29.4443C112.867 30.7529 113.666 31.9654 114.562 33.0816C115.497 34.1593 116.549 35.1022 117.718 35.9105C118.887 36.7188 120.172 37.3539 121.575 37.8157C123.016 38.2776 124.594 38.5085 126.309 38.5085C128.802 38.5085 130.945 38.1044 132.737 37.2961C134.568 36.4879 136.127 35.4102 137.413 34.063C138.698 32.7159 139.75 31.1571 140.568 29.3866C141.387 27.6161 142.049 25.7878 142.555 23.9019C143.062 21.9774 143.432 20.0529 143.666 18.1285C143.938 16.1655 144.153 14.318 144.309 12.586C144.309 12.3551 144.309 12.0279 144.309 11.6045C144.348 11.1427 144.367 10.6423 144.367 10.1034C144.406 9.5261 144.425 8.94876 144.425 8.37142C144.464 7.75559 144.523 7.1975 144.601 6.69714C141.796 6.92808 138.932 7.23599 136.01 7.62088C133.127 8.00577 130.224 8.37142 127.302 8.71783C124.38 9.02574 121.439 9.27592 118.478 9.46837C115.556 9.62233 112.672 9.60308 109.828 9.41063C109.4 9.37214 108.874 9.29517 108.25 9.1797C107.627 9.02574 107.023 8.83329 106.439 8.60236C105.893 8.37142 105.426 8.06351 105.036 7.67861C104.646 7.29372 104.452 6.83185 104.452 6.293C104.452 5.83113 104.822 5.48473 105.562 5.25379C106.302 5.02285 107.179 4.8689 108.192 4.79192C109.244 4.67645 110.335 4.63796 111.465 4.67645C112.594 4.67645 113.549 4.67645 114.328 4.67645C117.952 4.56098 121.166 4.46476 123.971 4.38778C126.776 4.27231 129.309 4.17609 131.568 4.09911C133.867 3.98364 135.951 3.90666 137.822 3.86818C139.692 3.7912 141.542 3.73346 143.374 3.69497C143.607 3.69497 144.192 3.65648 145.127 3.57951C146.062 3.50253 147.036 3.46404 148.049 3.46404C149.101 3.46404 150.016 3.56026 150.796 3.75271C151.614 3.90666 152.023 4.25307 152.023 4.79192C152.023 5.2153 151.847 5.54246 151.497 5.7734C151.185 6.00433 150.757 6.17753 150.211 6.293C149.666 6.40847 149.042 6.50469 148.341 6.58167C147.64 6.62016 146.938 6.6394 146.237 6.6394C146.432 7.29372 146.607 8.06351 146.763 8.94876C146.958 9.83402 147.114 10.777 147.231 11.7777C147.386 12.74 147.503 13.7022 147.581 14.6644C147.659 15.6267 147.698 16.5119 147.698 17.3202C147.698 20.5148 147.231 23.6709 146.296 26.7886C145.399 29.8677 144.036 32.6389 142.205 35.1022C140.412 37.5656 138.172 39.5478 135.484 41.0488C132.796 42.5884 129.679 43.3582 126.133 43.3582Z" fill="#6001D2"></path><path d="M155.864 35.6796C154.423 35.6796 153.274 35.3139 152.416 34.5826C151.559 33.8513 150.955 32.9468 150.605 31.8691C150.293 30.7914 150.215 29.6175 150.371 28.3474C150.488 27.0772 150.799 25.9225 151.306 24.8833C151.851 23.8056 152.553 22.9204 153.41 22.2276C154.267 21.5348 155.28 21.2268 156.449 21.3038C157.812 21.3808 158.923 21.7849 159.78 22.5162C160.637 23.2475 161.26 24.152 161.65 25.2297C162.04 26.3074 162.196 27.4621 162.118 28.6938C162.079 29.8869 161.806 31.0031 161.299 32.0423C160.793 33.0816 160.072 33.9476 159.137 34.6404C158.241 35.3332 157.15 35.6796 155.864 35.6796ZM156.624 33.0816C157.053 33.12 157.403 32.9276 157.676 32.5042C157.949 32.0423 158.144 31.465 158.26 30.7722C158.377 30.0409 158.416 29.2519 158.377 28.4051C158.377 27.5583 158.28 26.7693 158.085 26.038C157.929 25.3067 157.696 24.6909 157.384 24.1905C157.072 23.6902 156.702 23.44 156.273 23.44C155.884 23.44 155.553 23.6709 155.28 24.1328C155.007 24.5947 154.793 25.172 154.637 25.8648C154.52 26.5576 154.462 27.3274 154.462 28.1742C154.462 28.9824 154.54 29.7522 154.696 30.4835C154.851 31.1763 155.085 31.7729 155.397 32.2733C155.709 32.7736 156.118 33.0431 156.624 33.0816Z" fill="#6001D2"></path><path d="M173.26 27.0772C172.948 27.5006 172.558 27.847 172.091 28.1164C171.623 28.3859 171.117 28.6168 170.571 28.8092C170.026 28.9632 169.461 29.0787 168.877 29.1556C168.331 29.2326 167.844 29.2904 167.416 29.3288C167.299 30.1371 167.221 30.9262 167.182 31.6959C167.182 32.4657 167.221 33.1585 167.299 33.7744C167.416 34.3902 167.571 34.9098 167.766 35.3332C168 35.7566 168.312 36.026 168.701 36.1414C169.208 36.2954 169.753 36.2184 170.338 35.9105C170.922 35.5641 171.487 35.1022 172.032 34.5249C172.578 33.9476 173.104 33.274 173.61 32.5042C174.117 31.7344 174.565 31.0031 174.955 30.3103C175.344 29.579 175.675 28.9247 175.948 28.3474C176.221 27.7315 176.396 27.2889 176.474 27.0195C176.591 26.6731 176.766 26.4421 177 26.3267C177.273 26.2112 177.526 26.1727 177.76 26.2112C177.993 26.2497 178.188 26.3844 178.344 26.6153C178.5 26.8078 178.539 27.0772 178.461 27.4236C178.383 27.6546 178.247 28.1164 178.052 28.8092C177.857 29.4636 177.565 30.2141 177.175 31.0609C176.825 31.9076 176.377 32.7929 175.831 33.7166C175.325 34.6019 174.701 35.4294 173.961 36.1992C173.221 36.9305 172.364 37.5463 171.39 38.0467C170.455 38.547 169.403 38.7972 168.234 38.7972C166.831 38.7972 165.74 38.3161 164.961 37.3539C164.182 36.3916 163.656 35.1792 163.383 33.7166C163.11 32.254 163.072 30.6952 163.266 29.0402C163.422 27.3466 163.753 25.7686 164.26 24.306C164.805 22.8434 165.468 21.631 166.247 20.6688C167.065 19.7065 167.961 19.2254 168.935 19.2254C169.87 19.2254 170.688 19.5526 171.39 20.2069C172.13 20.8227 172.695 21.554 173.084 22.4008C173.474 23.2475 173.688 24.1135 173.727 24.9988C173.805 25.8841 173.649 26.5769 173.26 27.0772ZM169.636 21.9389C169.364 22.0544 169.071 22.5547 168.76 23.44C168.448 24.2867 168.156 25.326 167.883 26.5576C168.312 26.5576 168.74 26.5191 169.169 26.4421C169.597 26.3267 169.909 26.115 170.104 25.8071C170.26 25.5761 170.357 25.249 170.396 24.8256C170.435 24.3637 170.416 23.9019 170.338 23.44C170.299 22.9781 170.201 22.5932 170.046 22.2853C169.929 21.9774 169.792 21.8619 169.636 21.9389Z" fill="#6001D2"></path></svg>