<svg xmlns="http://www.w3.org/2000/svg" width="124" height="47" viewBox="0 0 124 47" fill="none"><path d="M1.74169 41.6148C0.548619 42.3098 0.14481 43.8403 0.839756 45.0334C1.5347 46.2265 3.06524 46.6303 4.25831 45.9353L1.74169 41.6148ZM123.696 15.0639L98.9183 0.25093L98.4785 29.1151L123.696 15.0639ZM7.59299 44.0822C8.8116 43.433 9.27327 41.919 8.62416 40.7003C7.97505 39.4817 6.46096 39.0201 5.24234 39.6692L7.59299 44.0822ZM12.3761 36.1166C11.1257 36.7021 10.5867 38.1905 11.1722 39.4409C11.7578 40.6913 13.2461 41.2302 14.4965 40.6447L12.3761 36.1166ZM21.5586 37.508C22.8307 36.9712 23.4268 35.5048 22.8901 34.2327C22.3533 32.9606 20.8869 32.3645 19.6148 32.9013L21.5586 37.508ZM26.9734 29.9429C25.684 30.4368 25.0392 31.8824 25.5331 33.1717C26.027 34.4611 27.4726 35.1059 28.762 34.612L26.9734 29.9429ZM36.0439 31.9516C37.3478 31.4976 38.0368 30.0725 37.5828 28.7686C37.1289 27.4647 35.7038 26.7756 34.3998 27.2296L36.0439 31.9516ZM41.9077 24.7398C40.591 25.1551 39.8602 26.5592 40.2756 27.876C40.6909 29.1928 42.095 29.9235 43.4118 29.5082L41.9077 24.7398ZM50.8517 27.2795C52.1799 26.9025 52.9509 25.52 52.5739 24.1918C52.1968 22.8636 50.8144 22.0925 49.4862 22.4696L50.8517 27.2795ZM57.1293 20.4183C55.7907 20.7569 54.9801 22.1166 55.3188 23.4551C55.6574 24.7936 57.017 25.6042 58.3555 25.2656L57.1293 20.4183ZM65.9069 23.4712C67.2547 23.1715 68.1044 21.836 67.8047 20.4882C67.5051 19.1404 66.1696 18.2907 64.8218 18.5903L65.9069 23.4712ZM72.564 16.988C71.2079 17.2478 70.3192 18.5577 70.579 19.9138C70.8388 21.2698 72.1487 22.1585 73.5048 21.8987L72.564 16.988ZM81.1504 20.5526C82.5136 20.3338 83.4414 19.0513 83.2226 17.688C83.0038 16.3247 81.7213 15.397 80.358 15.6158L81.1504 20.5526ZM88.1943 14.4817C86.8249 14.6582 85.8579 15.9113 86.0343 17.2807C86.2108 18.6501 87.464 19.6172 88.8334 19.4407L88.1943 14.4817ZM96.5366 18.5719C97.9109 18.4392 98.9174 17.2175 98.7847 15.8432C98.652 14.4689 97.4303 13.4624 96.056 13.5951L96.5366 18.5719ZM103.953 12.963C102.575 13.0503 101.529 14.2381 101.616 15.6161C101.704 16.994 102.892 18.0403 104.27 17.953L103.953 12.963ZM112.01 17.594C113.39 17.5538 114.476 16.4023 114.436 15.0222C114.396 13.6421 113.244 12.5559 111.864 12.5962L112.01 17.594ZM119.789 12.5042C118.409 12.4957 117.283 13.608 117.274 14.9887C117.265 16.3694 118.378 17.4956 119.759 17.5041L119.789 12.5042ZM4.25831 45.9353C5.25969 45.352 6.37276 44.7321 7.59299 44.0822L5.24234 39.6692C3.97211 40.3458 2.80329 40.9965 1.74169 41.6148L4.25831 45.9353ZM14.4965 40.6447C16.6679 39.6279 19.0266 38.5764 21.5586 37.508L19.6148 32.9013C17.0252 33.994 14.6076 35.0716 12.3761 36.1166L14.4965 40.6447ZM28.762 34.612C31.0844 33.7224 33.5143 32.8323 36.0439 31.9516L34.3998 27.2296C31.8214 28.1273 29.3433 29.035 26.9734 29.9429L28.762 34.612ZM43.4118 29.5082C45.8208 28.7484 48.3026 28.0032 50.8517 27.2795L49.4862 22.4696C46.8898 23.2067 44.3619 23.9657 41.9077 24.7398L43.4118 29.5082ZM58.3555 25.2656C60.8214 24.6418 63.34 24.0418 65.9069 23.4712L64.8218 18.5903C62.2066 19.1717 59.641 19.7829 57.1293 20.4183L58.3555 25.2656ZM73.5048 21.8987C76.0152 21.4178 78.5649 20.9676 81.1504 20.5526L80.358 15.6158C77.7217 16.0389 75.1225 16.4978 72.564 16.988L73.5048 21.8987ZM88.8334 19.4407C91.3727 19.1134 93.9416 18.8225 96.5366 18.5719L96.056 13.5951C93.4067 13.8509 90.7851 14.1478 88.1943 14.4817L88.8334 19.4407ZM104.27 17.953C106.829 17.7907 109.41 17.6699 112.01 17.594L111.864 12.5962C109.206 12.6738 106.568 12.7972 103.953 12.963L104.27 17.953Z" fill="#F41A0C"></path></svg>